<svg xmlns="http://www.w3.org/2000/svg" version="1.1" xmlns:xlink="http://www.w3.org/1999/xlink" xmlns:svgjs="http://svgjs.dev/svgjs" width="2000" height="1247" viewBox="0 0 2000 1247"><g transform="matrix(1,0,0,1,-1.2121212121212466,0.504858299595071)"><svg viewBox="0 0 396 247" data-background-color="#bb84e8" preserveAspectRatio="xMidYMid meet" height="1247" width="2000" xmlns="http://www.w3.org/2000/svg" xmlns:xlink="http://www.w3.org/1999/xlink"><g id="tight-bounds" transform="matrix(1,0,0,1,0.2400000000000091,-0.09999999999999432)"><svg viewBox="0 0 395.52 247.2" height="247.2" width="395.52"><g><svg></svg></g><g><svg viewBox="0 0 395.52 247.2" height="247.2" width="395.52"><mask id="dbcc317a-50a1-4f5d-94a9-ef40f0f3ff16"><rect width="640" height="400" fill="white"></rect><g transform="matrix(1,0,0,1,71.08761687571265,37.08)"><svg viewBox="0 0 253.34476624857467 173.04" height="173.04" width="253.34476624857467"><g><svg viewBox="0 0 253.34476624857467 173.04" height="173.04" width="253.34476624857467"><g><svg viewBox="0 0 253.34476624857467 173.04" height="173.04" width="253.34476624857467"><g><svg viewBox="0 0 253.34476624857467 173.04" height="173.04" width="253.34476624857467"><g id="SvgjsG1086"><svg viewBox="0 0 253.34476624857467 173.04" height="173.04" width="253.34476624857467" id="SvgjsSvg1085"><g><svg viewBox="0 0 253.34476624857467 173.04" height="173.04" width="253.34476624857467"><g transform="matrix(1,0,0,1,0,0)"><svg width="253.34476624857467" viewBox="-1.3499999046325684 -40.54999923706055 65.19999694824219 44.849998474121094" height="173.04" data-palette-color="#454545"><path d="M14.15 0.3L14.15 0.3Q11.05 0.3 8.4-0.83 5.75-1.95 4.2-4.48 2.65-7 2.65-11.15L2.65-11.15 2.65-25.1Q2.65-29.25 4.2-31.78 5.75-34.3 8.4-35.43 11.05-36.55 14.2-36.55L14.2-36.55Q17.7-36.55 20.38-35.38 23.05-34.2 24.58-32.1 26.1-30 26.1-27.05L26.1-27.05Q26.1-25.1 25.3-24.48 24.5-23.85 22.85-23.85L22.85-23.85Q21.5-23.85 20.58-24.33 19.65-24.8 19.6-25.9L19.6-25.9Q19.6-26.5 19.43-27.33 19.25-28.15 18.75-28.95 18.25-29.75 17.23-30.3 16.2-30.85 14.4-30.85L14.4-30.85Q11.85-30.85 10.48-29.43 9.1-28 9.1-25.1L9.1-25.1 9.1-11.15Q9.1-8.2 10.5-6.8 11.9-5.4 14.5-5.4L14.5-5.4Q16.2-5.4 17.2-5.95 18.2-6.5 18.68-7.33 19.15-8.15 19.33-9.05 19.5-9.95 19.6-10.75L19.6-10.75Q19.7-11.9 20.6-12.35 21.5-12.8 22.8-12.8L22.8-12.8Q24.5-12.8 25.3-12.15 26.1-11.5 26.1-9.6L26.1-9.6Q26.1-6.6 24.58-4.35 23.05-2.1 20.35-0.9 17.65 0.3 14.15 0.3ZM49.3 0L33.4 0Q32.35 0 31.45-0.53 30.55-1.05 30.55-2.05L30.55-2.05 30.55-34.55Q30.55-35.6 31.57-36.08 32.6-36.55 33.8-36.55L33.8-36.55Q35.05-36.55 36.05-36.08 37.05-35.6 37.05-34.55L37.05-34.55 37.05-5.7 49.3-5.7Q50.25-5.7 50.72-4.83 51.2-3.95 51.2-2.85L51.2-2.85Q51.2-1.8 50.72-0.9 50.25 0 49.3 0L49.3 0ZM56.5 0.3L56.5 0.3Q55.05 0.3 54.07-0.73 53.1-1.75 53.1-3.1L53.1-3.1Q53.1-4.5 54.07-5.5 55.05-6.5 56.5-6.5L56.5-6.5Q57.85-6.5 58.85-5.5 59.85-4.5 59.85-3.1L59.85-3.1Q59.85-1.75 58.85-0.73 57.85 0.3 56.5 0.3Z" opacity="1" transform="matrix(1,0,0,1,0,0)" fill="black" class="wordmark-text-0" id="SvgjsPath1084" stroke-width="7" stroke="black" stroke-linejoin="round"></path></svg></g></svg></g></svg></g></svg></g></svg></g></svg></g></svg></g></mask><g transform="matrix(1,0,0,1,71.08761687571265,37.08)"><svg viewBox="0 0 253.34476624857467 173.04" height="173.04" width="253.34476624857467"><g><svg viewBox="0 0 253.34476624857467 173.04" height="173.04" width="253.34476624857467"><g><svg viewBox="0 0 253.34476624857467 173.04" height="173.04" width="253.34476624857467"><g><svg viewBox="0 0 253.34476624857467 173.04" height="173.04" width="253.34476624857467"><g id="textblocktransform"><svg viewBox="0 0 253.34476624857467 173.04" height="173.04" width="253.34476624857467" id="textblock"><g><svg viewBox="0 0 253.34476624857467 173.04" height="173.04" width="253.34476624857467"><g transform="matrix(1,0,0,1,0,0)"><svg width="253.34476624857467" viewBox="-1.3499999046325684 -40.54999923706055 65.19999694824219 44.849998474121094" height="173.04" data-palette-color="#454545"><path d="M14.15 0.3L14.15 0.3Q11.05 0.3 8.4-0.83 5.75-1.95 4.2-4.48 2.65-7 2.65-11.15L2.65-11.15 2.65-25.1Q2.65-29.25 4.2-31.78 5.75-34.3 8.4-35.43 11.05-36.55 14.2-36.55L14.2-36.55Q17.7-36.55 20.38-35.38 23.05-34.2 24.58-32.1 26.1-30 26.1-27.05L26.1-27.05Q26.1-25.1 25.3-24.48 24.5-23.85 22.85-23.85L22.85-23.85Q21.5-23.85 20.58-24.33 19.65-24.8 19.6-25.9L19.6-25.9Q19.6-26.5 19.43-27.33 19.25-28.15 18.75-28.95 18.25-29.75 17.23-30.3 16.2-30.85 14.4-30.85L14.4-30.85Q11.85-30.85 10.48-29.43 9.1-28 9.1-25.1L9.1-25.1 9.1-11.15Q9.1-8.2 10.5-6.8 11.9-5.4 14.5-5.4L14.5-5.4Q16.2-5.4 17.2-5.95 18.2-6.5 18.68-7.33 19.15-8.15 19.33-9.05 19.5-9.95 19.6-10.75L19.6-10.75Q19.7-11.9 20.6-12.35 21.5-12.8 22.8-12.8L22.8-12.8Q24.5-12.8 25.3-12.15 26.1-11.5 26.1-9.6L26.1-9.6Q26.1-6.6 24.58-4.35 23.05-2.1 20.35-0.9 17.65 0.3 14.15 0.3ZM49.3 0L33.4 0Q32.35 0 31.45-0.53 30.55-1.05 30.55-2.05L30.55-2.05 30.55-34.55Q30.55-35.6 31.57-36.08 32.6-36.55 33.8-36.55L33.8-36.55Q35.05-36.55 36.05-36.08 37.05-35.6 37.05-34.55L37.05-34.55 37.05-5.7 49.3-5.7Q50.25-5.7 50.72-4.83 51.2-3.95 51.2-2.85L51.2-2.85Q51.2-1.8 50.72-0.9 50.25 0 49.3 0L49.3 0ZM56.5 0.3L56.5 0.3Q55.05 0.3 54.07-0.73 53.1-1.75 53.1-3.1L53.1-3.1Q53.1-4.5 54.07-5.5 55.05-6.5 56.5-6.5L56.5-6.5Q57.85-6.5 58.85-5.5 59.85-4.5 59.85-3.1L59.85-3.1Q59.85-1.75 58.85-0.73 57.85 0.3 56.5 0.3Z" opacity="1" transform="matrix(1,0,0,1,0,0)" fill="#000000" class="wordmark-text-0" data-fill-palette-color="primary" id="text-0"></path></svg></g></svg></g></svg></g></svg></g></svg></g></svg></g></svg></g><g mask="url(#dbcc317a-50a1-4f5d-94a9-ef40f0f3ff16)"><g transform="matrix(1.946031746031746, 0, 0, 1.946031746031746, 75.16, 1)"><svg xmlns="http://www.w3.org/2000/svg" xmlns:xlink="http://www.w3.org/1999/xlink" version="1.1" x="0" y="0" viewBox="1 1 126 126" style="enable-background:new 0 0 128 128;" xml:space="preserve" height="126" width="126" class="icon-none" data-fill-palette-color="accent" id="none"><g fill="#454545" data-fill-palette-color="accent"><path d="M110.937 52.703c-7.691-4.44-16.653-5.62-25.231-3.321-8.267 2.215-15.218 7.411-19.687 14.668 9.403 17.409 3.288 39.323-13.954 49.278-5.771 3.331-12.084 4.915-18.313 4.915-0.632 0-1.264-0.028-1.894-0.062C41.271 123.777 52.257 127 64 127c31.814 0 58.104-23.586 62.378-54.223C124.154 64.602 118.837 57.265 110.937 52.703z" fill="#000000" data-fill-palette-color="accent"></path><path d="M64 1c-8.339 0-16.291 1.635-23.575 4.577C34.448 11.591 30.749 19.872 30.749 29c0 18.01 14.396 32.711 32.285 33.226 4.938-8.026 12.624-13.774 21.766-16.224 9.482-2.54 19.386-1.237 27.887 3.671 6.348 3.666 11.181 8.957 14.295 15.043C126.983 64.476 127 64.24 127 64 127 29.206 98.795 1 64 1z" fill="#000000" data-fill-palette-color="accent"></path><path d="M50.314 110.297c15.598-9.006 21.13-28.825 12.632-44.574C43.168 65.162 27.249 48.91 27.249 29c0-7.337 2.17-14.175 5.891-19.918C13.961 19.882 1 40.421 1 64c0 20.167 9.486 38.105 24.228 49.636C33.414 115.793 42.419 114.854 50.314 110.297z" fill="#000000" data-fill-palette-color="accent"></path></g></svg></g></g></svg></g><defs></defs></svg><rect width="395.52" height="247.2" fill="none" stroke="none" visibility="hidden"></rect></g></svg></g></svg>